<svg xmlns="http://www.w3.org/2000/svg" width="171" height="248" viewBox="0 0 171 248">
<!-- SVG created with Arrow, by QuiverAI (https://quiver.ai) -->
  <path d="m110 196.2-4.69-0.12-0.14 0.05c-0.41 0 0.01-0.05-0.05-0.05-0.58 0 0.62 0 0.13 0.42s0 1.08 0 1.82v26.87c0 4.02-1.47 7.41-5.3 7.41h-29.93c-1.3 0-1.9 0.64-1.9 2.68v2.35c0 2.53 2.85 3.91 4.53 3.91h37.44c3.85 0 4.67-3.19 4.67-4.57v-36.87c0-2.1-2.27-3.9-4.76-3.9zm1.26 37.93-1.19-1.26 2.07-0.22-0.88 1.48zm1.59-4.17-0.99-0.04-0.39-1.72 1.38 0.82v0.94zm-0.34-4.04-1.49-0.73-0.58-2.17 2.07 2.17v0.73zm0-4.01-1.91-1.87-0.27-1.96 2.18 1.84v1.99zm0-8.29-1.04-0.25-0.58-1.38 1.62 0.29v1.34zm0-7.53-1.25-0.17-0.82-1.65 2.07 0.62v1.2zm-1.62 30.1-0.95-0.78 0.5-1.19 1.28 0.86-0.83 1.11z" fill="#000"/>
  <path d="m96.19 182.8h-4.97c-0.28 0.21-0.63 0.29-1.01 0.24l-4.14-0.39-14.75-0.3-1.63 0.27-3.91-0.27-8.37 0.45c-4 0-4 5.2-4 8.39v2.71l0.42 1.24-0.42 2.63 0.42 2.35-0.42 2.17v4.84l-0.36 2.08 0.36 2.54-0.36 1.99v9.3c-0.42 2.9 1.64 5.77 4.26 5.77l14.21 0.37 0.26-0.16 13.18 0.21 1.58-0.42h9.65c4.35 0 4.64-4.63 4.64-7.34v-21.27l-0.21-3.56 0.21-5.45c0-3.85-0.41-8.39-4.64-8.39zm-28.98 38.17-1.12-1.46 0.95-0.95 1.12 1.63-0.95 0.78zm-1.43-10.12-0.69-0.64 0.83-0.87 0.83 0.69-0.97 0.82zm0.14-20.65-0.14-1.08 1.05-0.17-0.91 1.25zm2.07 12.09-0.95-1.63 1.84-1.72 0.95 1.1-1.84 2.25zm0.3-5.98-0.58-1.17 1.05-1.07 0.95 0.98-1.42 1.26zm3.23 11.36-1.04-0.98 0.63-1.06 1.42 0.64-1.01 1.4zm2.46-10.48-0.51-1.55 1.21 0.5-0.7 1.05zm0.49 24.08-1.56-1.21 0.7-1.41 2.07 0.99-1.21 1.63zm2.39-19.53-1.05-0.91 1.42-1.46 0.88 1.04-1.25 1.33zm1.05 8.94-0.76-0.64 0.69-0.7 0.83 0.69-0.76 0.65zm1.83 15.42-0.51-0.68 0.69-0.38-0.18 1.06zm0.18-19.99-0.84-0.65 0.84-0.72 0.83 0.55-0.83 0.82zm0.69-14.66-0.45-0.61 0.7-0.34-0.25 0.95zm2 21.47-0.95-0.87 0.95-0.95 0.83 1.04-0.83 0.78zm6.36 9.81-1.91-1.55-1.05 0.87 0.84-3.32 1.42 0.42 1.55-0.84-0.85 4.42zm0.21-20.69-1.12-1.3 0.91-0.95 0.85 1.12-0.64 1.13zm6.03 12.64-0.95-0.87 0.95-0.64 0.83 0.87-0.83 0.64z" fill="#000"/>
  <path d="m166.4 70.73-0.52-3.65-0.68-1.97-0.25-2.35-1.58-4.05-0.69-2.31-4-7.04-4.65-6.23-10.94-9.87 1.64 2.71 4.7 6.15 3.7 5.19 3.73 11.87-0.25 2.79 0.95 2.9v10.49l-0.83 2.07 0.58 2.39-1.38 3.1 0.8 1.38-2.15 2.53 0.36 1.59-2.7 2.81-1.24 3.56-3.09 4.17-0.42 2.01-8.06 11.15-10.33 9.09-17.06 13.83c-9.21 8.15-9.91 11.92-10.49 27.05-0.22 5.7-1.11 5.82-5.72 5.82h-23.51c-1.28 0-1.28 1-1.28 2.21v1.84c0 1.92 1.12 2.79 3.72 2.79h33.48c1.39 0 2.51-1.29 2.51-2.49 0.58-7.08 1.53-14.45 4.13-18.57 3.63-5.83 9.09-11.58 14.32-14.86 3.57-2.31 7.13-5.55 10.57-8.31l0.95-1.5 2.85-1.8 2.7-3.43 1.91-1 5.6-6.67 4.25-5.4 3.73-6.87 1.91-4.93-0.17-1 1.21-3.05 2.07-9.78 0.85-5.02-1.23-9.34zm-57.67 83.09-0.73-0.61 0.73-0.64v1.25zm50.28-76.7-0.73-0.78 0.84-0.98-0.11 1.76zm0.83 4.93-1.21-1.81 1.21-1.06v2.87zm0 4.17-1.81-1.25 1.09-1.25 1.59 1.12-0.87 1.38zm0.94 3.82-1.42-1.21 0.58-1.16 1.75 0.99-0.91 1.38zm0 4.04-1.66-1.38 0.72-1.13 1.56 1.05-0.62 1.46zm-5.03 16.3-1.12-1.12 1.3-1.08 0.95 0.98-1.13 1.22zm0.98-4.37-2-1.97-0.35-1.93 2.35 1.88v2.02zm0-4.87-2.15-1.92-0.7-2.11 2.85 2.02v2.01zm-1.59 6.58-2.15-2.57-1.04-3.04 2.18 1.8 1.01 3.81zm-2.08 4.61-1.83-2.16 0.67-2.24 2.06 2.39-0.9 2.01zm-3.53 5.07-1.69-1.38 1.52-1.3 1.28 1.5-1.11 1.18zm-1.55 1.71-1.05-0.99 0.83-0.82 1.12 0.91-0.9 0.9zm-0.49-3.43-1.56-1.8 0.2-2.02 2.3 2.15-0.94 1.67zm-2.28 3.18-2.07-1.84-1.01-2.91 2.6 2.35 0.48 2.4zm-2.98 1.55-2.07-2.29-1.49-3.4 2.28 1.3 2.19 2.71-0.91 1.68zm-5.5 3.93-0.76-0.64 0.83-0.78 0.83 0.69-0.9 0.73zm-0.49-2.91-1.28-1.34 1.12-1.06 1.49 1.21-1.33 1.19zm-5.67 5.37-0.73-0.64 0.83-0.73 0.83 0.68-0.93 0.69zm-6.36 5.86-1.12-1.34 1.12-0.98 1.32 1.12-1.32 1.2z" fill="#000"/>
  <path d="m150.8 55.15-1.68-8.09-5.03-9.83-5.03-7.12-1.74-0.99-5.74-5.91-2.39-3.05-4.1-2.39-1.25-0.17-4.69-3.38-8.06-3.82-6.87-2.43-2.85-0.34-1.59-0.98h-3.37l-3.56-0.54-5.49-0.5-1.12-0.42-2.85 0.42-8.3-0.42-11.14 1.12-2.28-0.2-4.23 1.28-2.28 0.12-4.9 2.16-3.9 0.99-7.62 3.94-7.49 4.69-6.11 5.07-3.97 4.37-1.71 1.17-2.07 3.94-3.34 3.56-2.95 5.4-1.84 2.39-2.6 6.04-0.48 1.68-2.7 7.16-1.12 5.16 0.7-1.12-1.84 8.41v1.12l1.05 2.53 2.7 1.55 13.97 1.38 24.13 1.84c3.37 0.25 4.92-1.97 5.62-5.74 1.05-5.49 3.4-14.07 5.4-17.76 5.16-10.05 13.46-14.31 21.76-14.31 9.35 0 16.76 1.53 22.09 8.1l0.83 0.89-3.27-4.24-7.41-1.76-9.35 0.09c-10.55 1.1-18.2 7.7-23.2 20.96-1.38 3.82-2.5 10.84-3.79 13.74-1.05 2.64-3.44 2.9-6.29 2.64l-23.37-1.38c-1.91-0.16-2.85 0.26-2.85 2.13v2.44c0 1.59 2.21 2.97 4.36 2.97l11.14 0.42 1.21 0.29 5.74-0.08 2.49 0.58 12.34 0.86c2.95 0.25 3.62-0.9 4.16-2.95 1.01-3.66 1.43-9.86 4.86-16.77 3.2-8.75 13.3-18 25.22-18 5.99 0 11.22 1.09 14 4.65l1.71 7.11v3.29l-0.95 6.25-2.42 6.56-8.3 10.4-12.76 10.09-4.62 4.71-5.23 5-5.6 7.54-0.83 2.11-2.85 4.45-3.66 10.3-1.81 13.36v3.28l-0.79 4.62 0.28 1.24c-0.62 3.19 0.93 4.91 3.88 4.91h30.88c4.9 0 5.91-1.92 6.05-7.75 0.2-11.96 3.4-20.03 15.42-29.76l13.9-11.12c10.4-8.39 16.93-17.09 21.86-27.97 3.02-6.6 3.62-19.91 1.88-32.18zm-128.7-12.02 0.85 1.47-1.84 1.21-0.95-1.64 1.94-1.04zm3.8 2.17 0.42 0.6-0.59 0.31 0.17-0.91zm-6.26 19.1-1.84-2.26 0.95-1.72-1.84 1.06-1.12-3.15-1.28 0.51-1.35-1.8 1.84-0.38-1.74-1.25 1.74-0.17 3.36 2.67-0.94 2.21 2.22 1.59v2.69zm1.71-3.77-1.05-1.71 0.7-1.1 1.35 1.28-1 1.53zm2.85-2.51-1.05-2.11 1.65-0.86-0.6 2.97zm2.07-1.25-1.02-1.25 1.3-1.06 1.12 0.78-1.4 1.53zm0.49-4.05-1.28-1.34 2-0.25-0.72 1.59zm5.36 4.62-1.74-2.16-1.28 0.73-0.55-3.23 1.65 1.13 1.45-1.71 1.05 0.87-1.42 1.62 0.84 2.75zm1.83 9.38-1.83-1.8 1.11-1.25 1.74 1.63-1.02 1.42zm-2.49 4.49-3.66-3.93-0.35-1.65 1.58 1.88 1.05-0.38 2.18 2.17 0.95 0.73-1.75 1.18zm8.39-21.28-0.84-2.55 2.69-3.4v1.98l-1.85 1.86 1.21 2.39-1.21-0.28zm1.68 9.38-2.17-3.18 0.67-2.25-1.56-1.16 1.38-0.99 1.21 2.69-0.95 1.38 2.95 2.01-1.53 1.5zm1.12-16.53-0.49-0.93 0.49-0.69v1.62zm-1.49-6.18-2.85-3.69-1.12-0.5-3.09 1.67 0.83-2.06 2.28-0.94 1.45 1.33 1.12-1.5 1.12 1.3-0.7 1.42 2.18 1.33-1.22 1.64zm1.05 26.72-1.21-1.28 0.7-0.97 1.21 1.13-0.7 1.12zm4.55-15.94-0.7-0.69 0.7-0.67v1.36zm3.36-24.27-1.35-0.99 0.95-0.86 1.05 0.98-0.65 0.87zm3.34 8.18-0.95-0.78 0.95-0.78v1.56zm3.72 3.93-1.21-1.38 0.84-1.05 1.28 1.12-0.91 1.31zm4.65 1.3-1.05-1.06 1.05-0.73v1.79zm-0.28-15.38-0.73-0.73 0.83-0.74 0.83 0.69-0.93 0.78zm-1.74-7.15-1.05-1.08 1.05-0.65v1.73zm3.36 3.1-1.21-1.38 0.84-1.06 1.28 1.12-0.91 1.32zm3.91-2.17-0.48-0.8 0.83-0.34-0.35 1.14zm7.59 7.2-0.7-0.78 0.84-0.64v1.42zm5.39 12.61-0.58-0.65 0.58-0.67v1.32zm4.8-9.72-1.74-1.29 1.42-1.84 1.84 1.84-1.52 1.29zm2.39-10.01-0.83-0.64 0.83-0.78v1.42zm3.02 17.21-0.76-0.65 0.76-0.78v1.43zm6.46 1.33-0.83-0.73 0.83-0.69v1.42zm7.79 10.44-0.73-1.07 0.73-0.64v1.71zm6.18-24.22-0.95-1.07 0.95-0.65v1.72zm0.42 25.7-0.95-0.96 0.95-0.87v1.83zm1.04-20.45-1.55-1.9 1.42-0.99 1.32 1.38-1.19 1.51zm4 12.46-1.71-2.01 1.05-1.83 1.81 1.97-1.15 1.87zm1.15-11.47-0.83-0.99 0.83-0.75v1.74zm1.55 13.64-0.83-0.98 0.83-0.69v1.67zm2.71-1.67-0.95-0.78 0.95-0.78v1.56zm2.59-0.5-0.83-0.74 0.83-0.69v1.43zm2.49 0.87-0.76-0.73 0.76-0.69v1.42zm-2.49 14.72-0.83-1.12 0.83-0.81v1.93zm0 15.08-0.83-0.98 0.83-0.74v1.72zm2.15-19.13-1.35-1.23 1.35-0.82v2.05zm2.18-0.38-1.21-1.25 1.21-0.77v2.02zm1.71 0.89-1.42-2.56 2.07-0.94 1.56 2.26-2.21 1.24zm0.76-8.7-1.05-1.18 1.05-0.82v2zm1.12 15.78-0.83-0.99 0.83-0.69v1.68zm1.12 4.51-0.83-1.05 0.83-0.75v1.8zm0-10.9-0.83-1.07 0.83-0.74v1.81zm2.08 7.13-0.83-1.12 0.83-0.7v1.82zm1.49-7.13-0.84-1.07 0.84-0.74v1.81zm2.59 6.39-1.55-1.38 1.05-1.55 1.91 1.64-1.41 1.29zm-1.28 14.16-0.83-1.25 0.83-0.95v2.2zm1.12 4.5-4-4.28-1.83-3.01 1.42 0.87 2 3.03 3.36 3.06-0.95 0.33zm0.95 7.43-1.29-1.6 1.05-0.86 1.35 1.38-1.11 1.08zm0.55-21.58-0.83-1.05 0.83-0.75v1.8zm5.03 7.45-1.28-1.24 1.28-1.1v2.34z" fill="#000"/>
</svg>